<mxfile host="app.diagrams.net" modified="2023-02-08T12:16:18.738Z" agent="5.0 (Windows NT 10.0; Win64; x64) AppleWebKit/537.36 (KHTML, like Gecko) Chrome/109.0.0.0 Safari/537.36" etag="8P1K3g8wUneEyXADUnLw" version="20.8.18" type="github">
  <diagram name="Page-1" id="N-m8c5LoyWpbOLUp7I7Y">
    <mxGraphModel dx="1114" dy="616" grid="1" gridSize="10" guides="1" tooltips="1" connect="1" arrows="1" fold="1" page="1" pageScale="1" pageWidth="827" pageHeight="1169" math="0" shadow="0">
      <root>
        <mxCell id="0" />
        <mxCell id="1" parent="0" />
        <mxCell id="1n5qdOwvCVArKqyqLSRp-2" value="Actor" style="shape=umlActor;verticalLabelPosition=bottom;verticalAlign=top;html=1;outlineConnect=0;" vertex="1" parent="1">
          <mxGeometry x="370" y="70" width="30" height="60" as="geometry" />
        </mxCell>
        <mxCell id="1n5qdOwvCVArKqyqLSRp-5" value="Carehome Booking Website" style="verticalLabelPosition=bottom;html=1;verticalAlign=top;align=center;strokeColor=none;fillColor=#00BEF2;shape=mxgraph.azure.azure_website;pointerEvents=1;" vertex="1" parent="1">
          <mxGeometry x="364" y="240" width="50" height="50" as="geometry" />
        </mxCell>
        <mxCell id="1n5qdOwvCVArKqyqLSRp-6" value="Carehome Booking API" style="sketch=0;html=1;dashed=0;whitespace=wrap;fillColor=#2875E2;strokeColor=#ffffff;points=[[0.005,0.63,0],[0.1,0.2,0],[0.9,0.2,0],[0.5,0,0],[0.995,0.63,0],[0.72,0.99,0],[0.5,1,0],[0.28,0.99,0]];verticalLabelPosition=bottom;align=center;verticalAlign=top;shape=mxgraph.kubernetes.icon;prIcon=api" vertex="1" parent="1">
          <mxGeometry x="364" y="460" width="50" height="48" as="geometry" />
        </mxCell>
        <mxCell id="1n5qdOwvCVArKqyqLSRp-7" value="" style="endArrow=classic;startArrow=classic;html=1;rounded=0;exitX=0.5;exitY=0;exitDx=0;exitDy=0;exitPerimeter=0;" edge="1" parent="1" source="1n5qdOwvCVArKqyqLSRp-5">
          <mxGeometry width="50" height="50" relative="1" as="geometry">
            <mxPoint x="340" y="200" as="sourcePoint" />
            <mxPoint x="390" y="150" as="targetPoint" />
          </mxGeometry>
        </mxCell>
        <mxCell id="1n5qdOwvCVArKqyqLSRp-8" value="" style="endArrow=none;dashed=1;html=1;dashPattern=1 3;strokeWidth=2;rounded=0;" edge="1" parent="1">
          <mxGeometry width="50" height="50" relative="1" as="geometry">
            <mxPoint x="10" y="370" as="sourcePoint" />
            <mxPoint x="830" y="370" as="targetPoint" />
          </mxGeometry>
        </mxCell>
        <mxCell id="1n5qdOwvCVArKqyqLSRp-10" value="" style="endArrow=classic;startArrow=classic;html=1;rounded=0;exitX=0.5;exitY=0;exitDx=0;exitDy=0;exitPerimeter=0;" edge="1" parent="1" source="1n5qdOwvCVArKqyqLSRp-6">
          <mxGeometry width="50" height="50" relative="1" as="geometry">
            <mxPoint x="340" y="340" as="sourcePoint" />
            <mxPoint x="390" y="290" as="targetPoint" />
          </mxGeometry>
        </mxCell>
        <mxCell id="1n5qdOwvCVArKqyqLSRp-11" value="Carehome Booking" style="shape=cylinder3;whiteSpace=wrap;html=1;boundedLbl=1;backgroundOutline=1;size=15;" vertex="1" parent="1">
          <mxGeometry x="180" y="510" width="60" height="80" as="geometry" />
        </mxCell>
        <mxCell id="1n5qdOwvCVArKqyqLSRp-12" value="" style="endArrow=classic;startArrow=classic;html=1;rounded=0;" edge="1" parent="1" target="1n5qdOwvCVArKqyqLSRp-6">
          <mxGeometry width="50" height="50" relative="1" as="geometry">
            <mxPoint x="240" y="530" as="sourcePoint" />
            <mxPoint x="290" y="480" as="targetPoint" />
          </mxGeometry>
        </mxCell>
        <mxCell id="1n5qdOwvCVArKqyqLSRp-13" value="" style="ellipse;whiteSpace=wrap;html=1;opacity=40;" vertex="1" parent="1">
          <mxGeometry x="130" y="428" width="450" height="192" as="geometry" />
        </mxCell>
        <mxCell id="1n5qdOwvCVArKqyqLSRp-14" value="" style="endArrow=none;dashed=1;html=1;dashPattern=1 3;strokeWidth=2;rounded=0;" edge="1" parent="1">
          <mxGeometry width="50" height="50" relative="1" as="geometry">
            <mxPoint x="19" y="890" as="sourcePoint" />
            <mxPoint x="809" y="890" as="targetPoint" />
          </mxGeometry>
        </mxCell>
        <mxCell id="1n5qdOwvCVArKqyqLSRp-17" value="" style="outlineConnect=0;dashed=0;verticalLabelPosition=bottom;verticalAlign=top;align=center;html=1;shape=mxgraph.aws3.android;fillColor=#115193;gradientColor=none;opacity=40;" vertex="1" parent="1">
          <mxGeometry x="377" y="700" width="73.5" height="84" as="geometry" />
        </mxCell>
        <mxCell id="1n5qdOwvCVArKqyqLSRp-18" value="Empty Rooms" style="shape=cylinder3;whiteSpace=wrap;html=1;boundedLbl=1;backgroundOutline=1;size=15;opacity=40;" vertex="1" parent="1">
          <mxGeometry x="190" y="740" width="60" height="80" as="geometry" />
        </mxCell>
        <mxCell id="1n5qdOwvCVArKqyqLSRp-21" value="" style="endArrow=classic;startArrow=classic;html=1;rounded=0;" edge="1" parent="1" source="1n5qdOwvCVArKqyqLSRp-20" target="1n5qdOwvCVArKqyqLSRp-13">
          <mxGeometry width="50" height="50" relative="1" as="geometry">
            <mxPoint x="140" y="640" as="sourcePoint" />
            <mxPoint x="190" y="590" as="targetPoint" />
          </mxGeometry>
        </mxCell>
        <mxCell id="1n5qdOwvCVArKqyqLSRp-20" value="" style="ellipse;whiteSpace=wrap;html=1;opacity=40;" vertex="1" parent="1">
          <mxGeometry x="130" y="670" width="430" height="180" as="geometry" />
        </mxCell>
        <mxCell id="1n5qdOwvCVArKqyqLSRp-23" value="" style="endArrow=classic;startArrow=classic;html=1;rounded=0;" edge="1" parent="1" target="1n5qdOwvCVArKqyqLSRp-17">
          <mxGeometry width="50" height="50" relative="1" as="geometry">
            <mxPoint x="250" y="790" as="sourcePoint" />
            <mxPoint x="300" y="740" as="targetPoint" />
          </mxGeometry>
        </mxCell>
      </root>
    </mxGraphModel>
  </diagram>
</mxfile>
